<svg width="48" height="38" viewBox="0 0 48 38" fill="none" xmlns="http://www.w3.org/2000/svg">
<path d="M1.14773 15V3.36364H3.25568V13.233H8.38068V15H1.14773ZM19.6748 9.18182C19.6748 10.4356 19.44 11.5095 18.9703 12.4034C18.5044 13.2936 17.868 13.9754 17.0612 14.4489C16.2582 14.9223 15.3472 15.1591 14.3282 15.1591C13.3093 15.1591 12.3964 14.9223 11.5896 14.4489C10.7866 13.9716 10.1502 13.2879 9.68051 12.3977C9.2146 11.5038 8.98165 10.4318 8.98165 9.18182C8.98165 7.92803 9.2146 6.85606 9.68051 5.96591C10.1502 5.07197 10.7866 4.38826 11.5896 3.91477C12.3964 3.44129 13.3093 3.20455 14.3282 3.20455C15.3472 3.20455 16.2582 3.44129 17.0612 3.91477C17.868 4.38826 18.5044 5.07197 18.9703 5.96591C19.44 6.85606 19.6748 7.92803 19.6748 9.18182ZM17.5555 9.18182C17.5555 8.29924 17.4173 7.55492 17.1407 6.94886C16.868 6.33902 16.4892 5.87879 16.0044 5.56818C15.5195 5.25379 14.9608 5.09659 14.3282 5.09659C13.6957 5.09659 13.137 5.25379 12.6521 5.56818C12.1673 5.87879 11.7866 6.33902 11.5101 6.94886C11.2373 7.55492 11.101 8.29924 11.101 9.18182C11.101 10.0644 11.2373 10.8106 11.5101 11.4205C11.7866 12.0265 12.1673 12.4867 12.6521 12.8011C13.137 13.1117 13.6957 13.267 14.3282 13.267C14.9608 13.267 15.5195 13.1117 16.0044 12.8011C16.4892 12.4867 16.868 12.0265 17.1407 11.4205C17.4173 10.8106 17.5555 10.0644 17.5555 9.18182ZM28.9832 7.07955C28.8885 6.77273 28.7578 6.49811 28.5911 6.25568C28.4283 6.00947 28.2313 5.79924 28.0002 5.625C27.773 5.45076 27.5116 5.32008 27.2161 5.23295C26.9207 5.14205 26.5987 5.09659 26.2502 5.09659C25.6252 5.09659 25.0684 5.25379 24.5798 5.56818C24.0911 5.88258 23.7067 6.3447 23.4264 6.95455C23.1498 7.56061 23.0116 8.29924 23.0116 9.17045C23.0116 10.0492 23.1498 10.7936 23.4264 11.4034C23.7029 12.0133 24.0873 12.4773 24.5798 12.7955C25.0722 13.1098 25.6442 13.267 26.2957 13.267C26.8866 13.267 27.398 13.1534 27.8298 12.9261C28.2654 12.6989 28.6006 12.3769 28.8355 11.9602C29.0703 11.5398 29.1877 11.0473 29.1877 10.483L29.665 10.5568H26.5059V8.90909H31.2275V10.3068C31.2275 11.303 31.0154 12.1648 30.5911 12.892C30.1669 13.6193 29.5836 14.1799 28.8411 14.5739C28.0987 14.964 27.2464 15.1591 26.2843 15.1591C25.2123 15.1591 24.2711 14.9186 23.4605 14.4375C22.6536 13.9527 22.023 13.2652 21.5684 12.375C21.1177 11.4811 20.8923 10.4205 20.8923 9.19318C20.8923 8.25379 21.0248 7.41477 21.29 6.67614C21.5589 5.9375 21.9339 5.31061 22.415 4.79545C22.8961 4.27651 23.4605 3.88258 24.1082 3.61364C24.7559 3.34091 25.4605 3.20455 26.2218 3.20455C26.8658 3.20455 27.4661 3.29924 28.023 3.48864C28.5798 3.67424 29.0741 3.93939 29.5059 4.28409C29.9415 4.62879 30.2995 5.03788 30.5798 5.51136C30.8601 5.98485 31.0438 6.50758 31.1309 7.07955H28.9832ZM43.1836 9.18182C43.1836 10.4356 42.9487 11.5095 42.479 12.4034C42.0131 13.2936 41.3768 13.9754 40.5699 14.4489C39.7669 14.9223 38.8559 15.1591 37.837 15.1591C36.818 15.1591 35.9052 14.9223 35.0984 14.4489C34.2953 13.9716 33.659 13.2879 33.1893 12.3977C32.7234 11.5038 32.4904 10.4318 32.4904 9.18182C32.4904 7.92803 32.7234 6.85606 33.1893 5.96591C33.659 5.07197 34.2953 4.38826 35.0984 3.91477C35.9052 3.44129 36.818 3.20455 37.837 3.20455C38.8559 3.20455 39.7669 3.44129 40.5699 3.91477C41.3768 4.38826 42.0131 5.07197 42.479 5.96591C42.9487 6.85606 43.1836 7.92803 43.1836 9.18182ZM41.0643 9.18182C41.0643 8.29924 40.926 7.55492 40.6495 6.94886C40.3768 6.33902 39.998 5.87879 39.5131 5.56818C39.0283 5.25379 38.4696 5.09659 37.837 5.09659C37.2044 5.09659 36.6457 5.25379 36.1609 5.56818C35.676 5.87879 35.2953 6.33902 35.0188 6.94886C34.7461 7.55492 34.6097 8.29924 34.6097 9.18182C34.6097 10.0644 34.7461 10.8106 35.0188 11.4205C35.2953 12.0265 35.676 12.4867 36.1609 12.8011C36.6457 13.1117 37.2044 13.267 37.837 13.267C38.4696 13.267 39.0283 13.1117 39.5131 12.8011C39.998 12.4867 40.3768 12.0265 40.6495 11.4205C40.926 10.8106 41.0643 10.0644 41.0643 9.18182ZM2.64205 34H0.392045L4.48864 22.3636H7.09091L11.1932 34H8.94318L5.83523 24.75H5.74432L2.64205 34ZM2.71591 29.4375H8.85227V31.1307H2.71591V29.4375ZM21.6592 26.2898H19.5342C19.4736 25.9413 19.3619 25.6326 19.199 25.3636C19.0361 25.0909 18.8334 24.8598 18.591 24.6705C18.3486 24.4811 18.0721 24.339 17.7615 24.2443C17.4547 24.1458 17.1232 24.0966 16.7672 24.0966C16.1346 24.0966 15.574 24.2557 15.0853 24.5739C14.5967 24.8883 14.2141 25.3504 13.9376 25.9602C13.6611 26.5663 13.5228 27.3068 13.5228 28.1818C13.5228 29.072 13.6611 29.822 13.9376 30.4318C14.2179 31.0379 14.6005 31.4962 15.0853 31.8068C15.574 32.1136 16.1327 32.267 16.7615 32.267C17.11 32.267 17.4357 32.2216 17.7388 32.1307C18.0456 32.036 18.3202 31.8977 18.5626 31.7159C18.8088 31.5341 19.0153 31.3106 19.1819 31.0455C19.3524 30.7803 19.4698 30.4773 19.5342 30.1364L21.6592 30.1477C21.5797 30.7008 21.4073 31.2197 21.1422 31.7045C20.8808 32.1894 20.538 32.6174 20.1138 32.9886C19.6895 33.3561 19.1933 33.6439 18.6251 33.8523C18.0569 34.0568 17.4263 34.1591 16.7331 34.1591C15.7103 34.1591 14.7975 33.9223 13.9944 33.4489C13.1914 32.9754 12.5588 32.2917 12.0967 31.3977C11.6346 30.5038 11.4035 29.4318 11.4035 28.1818C11.4035 26.928 11.6365 25.8561 12.1024 24.9659C12.5683 24.072 13.2028 23.3883 14.0058 22.9148C14.8088 22.4413 15.7179 22.2045 16.7331 22.2045C17.3808 22.2045 17.9831 22.2955 18.5399 22.4773C19.0967 22.6591 19.5929 22.9261 20.0285 23.2784C20.4641 23.6269 20.8221 24.0549 21.1024 24.5625C21.3865 25.0663 21.5721 25.642 21.6592 26.2898ZM24.4633 34H22.2133L26.3099 22.3636H28.9122L33.0144 34H30.7644L27.6565 24.75H27.5656L24.4633 34ZM24.5372 29.4375H30.6735V31.1307H24.5372V29.4375ZM38.0103 34H34.0671V22.3636H38.0898C39.2451 22.3636 40.2376 22.5966 41.0671 23.0625C41.9004 23.5246 42.5406 24.1894 42.9876 25.0568C43.4345 25.9242 43.658 26.9621 43.658 28.1705C43.658 29.3826 43.4326 30.4242 42.9819 31.2955C42.5349 32.1667 41.8891 32.8352 41.0444 33.3011C40.2035 33.767 39.1921 34 38.0103 34ZM36.1751 32.1761H37.908C38.7186 32.1761 39.3948 32.0284 39.9364 31.733C40.4781 31.4337 40.8853 30.9886 41.158 30.3977C41.4307 29.803 41.5671 29.0606 41.5671 28.1705C41.5671 27.2803 41.4307 26.5417 41.158 25.9545C40.8853 25.3636 40.4819 24.9223 39.9478 24.6307C39.4175 24.3352 38.7584 24.1875 37.9705 24.1875H36.1751V32.1761Z" fill="#493159"/>
</svg>