<svg width="10" height="6" viewBox="0 0 10 6" fill="none" xmlns="http://www.w3.org/2000/svg">
<path d="M8.944 0.452169C9.1854 0.210764 9.57759 0.210771 9.819 0.452169C10.0604 0.693577 10.0604 1.08576 9.819 1.32717L5.6022 5.54201C5.60059 5.54366 5.59993 5.54624 5.59829 5.54787C5.56801 5.57816 5.53505 5.60429 5.50064 5.62697C5.2607 5.78532 4.93449 5.75907 4.72329 5.54787C4.7215 5.54608 4.72018 5.54382 4.71841 5.54201L0.502589 1.32717C0.261181 1.08576 0.261181 0.693577 0.502589 0.452169C0.743998 0.210771 1.13618 0.210764 1.37759 0.452169L5.16079 4.23537L8.944 0.452169Z" fill="#615E83"/>
</svg>
