<svg width="399" height="399" viewBox="0 0 399 399" fill="none" xmlns="http://www.w3.org/2000/svg">
<path d="M357.3 257.3C361.948 257.3 365.6 260.952 365.6 265.6V282.2C365.6 309.756 343.356 332 315.8 332C315.8 304.61 293.39 282.2 266 282.2C238.61 282.2 216.2 304.61 216.2 332H183C183 304.61 160.59 282.2 133.2 282.2C105.81 282.2 83.4 304.61 83.4 332C55.844 332 33.6 309.756 33.6 282.2V249C33.6 239.87 41.07 232.4 50.2 232.4H207.9C230.808 232.4 249.4 213.808 249.4 190.9V99.6C249.4 90.47 256.87 83 266 83H279.944C291.896 83 302.852 89.474 308.828 99.766L319.452 118.358C320.946 121.014 318.954 124.5 315.8 124.5C292.892 124.5 274.3 143.092 274.3 166V215.8C274.3 238.708 292.892 257.3 315.8 257.3H357.3Z" fill="#493159"/>
<path d="M133.2 365.2C151.536 365.2 166.4 350.336 166.4 332C166.4 313.664 151.536 298.8 133.2 298.8C114.864 298.8 100 313.664 100 332C100 350.336 114.864 365.2 133.2 365.2Z" fill="#493159"/>
<path d="M266 365.2C284.336 365.2 299.2 350.336 299.2 332C299.2 313.664 284.336 298.8 266 298.8C247.664 298.8 232.8 313.664 232.8 332C232.8 350.336 247.664 365.2 266 365.2Z" fill="#493159"/>
<path d="M365.6 207.998V232.4H315.8C306.67 232.4 299.2 224.93 299.2 215.8V166C299.2 156.87 306.67 149.4 315.8 149.4H337.214L361.284 191.564C364.106 196.544 365.6 202.188 365.6 207.998Z" fill="#493159"/>
<path d="M217.528 33.2H94.854C65.14 33.2 40.24 54.448 34.762 82.668H107.304C113.612 82.668 118.592 87.814 118.592 94.122C118.592 100.43 113.612 105.41 107.304 105.41H33.6V128.318H76.76C83.068 128.318 88.214 133.464 88.214 139.772C88.214 146.08 83.068 151.06 76.76 151.06H33.6V173.968H46.382C52.69 173.968 57.836 179.114 57.836 185.422C57.836 191.73 52.69 196.71 46.382 196.71H33.6V200.528C33.6 209.658 41.07 217.128 50.2 217.128H202.09C219.022 217.128 232.8 203.35 232.8 186.418V48.472C232.8 40.006 225.994 33.2 217.528 33.2Z" fill="#493159"/>
<path d="M34.762 82.668H32.272H16.004C9.69605 82.668 4.55005 87.814 4.55005 94.122C4.55005 100.43 9.69605 105.41 16.004 105.41H31.11H33.6V94.454C33.6 90.47 34.098 86.486 34.762 82.668Z" fill="#493159"/>
<path d="M31.11 128.318H16.004C9.69605 128.318 4.55005 133.464 4.55005 139.772C4.55005 146.08 9.69605 151.06 16.004 151.06H31.11H33.6V128.318H31.11Z" fill="#493159"/>
<path d="M31.11 173.968H16.004C9.69605 173.968 4.55005 179.114 4.55005 185.422C4.55005 191.73 9.69605 196.71 16.004 196.71H31.11H33.6V173.968H31.11Z" fill="#493159"/>
</svg>
